{"title":"Nebraska(2013)1080p_PapaFatHead.mp4","uid":9617875,"size":4186726664,"categoryP":"video","categoryS":"hd___movies","magnet":"?xt=urn:btih:fe0ad74159d8e37c3b1dd37b1c3633f33beb2314&amp;dn=Nebraska%282013%291080p_PapaFatHead.mp4&amp;tr=udp%3A%2F%2Ftracker.openbittorrent.com%3A80&amp;tr=udp%3A%2F%2Fopen.demonii.com%3A1337&amp;tr=udp%3A%2F%2Ftracker.coppersurfer.tk%3A6969&amp;tr=udp%3A%2F%2Fexodus.desync.com%3A6969","seeders":1,"leechers":0,"uploader":"PapaFatHead","files":1,"time":1392440862,"description":"General\nComplete name                  : Nebraska(2013)1080p_PapaFatHead.mp4\nFormat                         : MPEG-4\nFormat profile                 : Base Media\nCodec ID                       : isom\nFile size                      : 3.90 GiB\nDuration                       : 1h 54mn\nOverall bit rate mode          : Variable\nOverall bit rate               : 4 866 Kbps\nMovie name                     : Nebraska\n\n\nVideo\nID                             : 1\nFormat                         : MPEG-4 Visual\nFormat profile                 : Simple@L3\nFormat settings, BVOP          : No\nFormat settings, QPel          : No\nFormat settings, GMC           : No warppoints\nFormat settings, Matrix        : Default (H.263)\nCodec ID                       : 20\nDuration                       : 1h 54mn\nBit rate mode                  : Variable\nBit rate                       : 4 700 Kbps\nMaximum bit rate               : 5 000 Kbps\nWidth                          : 1 920 pixels\nHeight                         : 800 pixels\nDisplay aspect ratio           : 16:9\nFrame rate mode                : Constant\nFrame rate                     : 23.976 fps\nColor space                    : YUV\nChroma subsampling             : 4:2:0\nBit depth                      : 8 bits\nScan type                      : Progressive\nCompression mode               : Lossy\nBits/(Pixel*Frame)             : 0.128\nStream size                    : 3.77 GiB (97%)\nWriting library                : Lavc55.39.100\n\nAudio\nID                             : 2\nFormat                         : AAC\nFormat/Info                    : Advanced Audio Codec\nFormat profile                 : LC\nCodec ID                       : 40\nDuration                       : 1h 54mn\nBit rate mode                  : Variable\nBit rate                       : 160 Kbps\nMaximum bit rate               : 5 000 Kbps\nChannel(s)                     : 2 channels\nChannel(s)_Original            : 6 channels\nChannel positions              : Front: L C R, Side: L R, LFE\nSampling rate                  : 44.1 KHz\nCompression mode               : Lossy\nStream size                    : 131 MiB (3%)\nLanguage                       : English\n\nMenu #1\nID                             : 3\nCodec ID                       : text\nDuration                       : 1h 54mn\nLanguage                       : English\nBit rate mode                  : CBR\n\nMenu #2\n00:00:00.000                   : 00:00:00.000\n00:06:32.601                   : 00:06:32.601\n00:13:18.381                   : 00:13:18.381\n00:18:09.630                   : 00:18:09.630\n00:25:35.534                   : 00:25:35.534\n00:31:17.084                   : 00:31:17.084\n00:37:16.901                   : 00:37:16.901\n00:46:10.601                   : 00:46:10.601\n00:51:17.366                   : 00:51:17.366\n00:55:07.846                   : 00:55:07.846\n01:02:24.449                   : 01:02:24.449\n01:08:19.178                   : 01:08:19.178\n01:13:26.319                   : 01:13:26.319\n01:21:13.952                   : 01:21:13.952\n01:27:09.933                   : 01:27:09.933\n01:32:20.118                   : 01:32:20.118\n01:39:37.805                   : 01:39:37.805\n01:48:59.032                   : 01:48:59.032\n\n","torrent":{"xt":"urn:btih:fe0ad74159d8e37c3b1dd37b1c3633f33beb2314","amp;dn":"Nebraska%282013%291080p_PapaFatHead.mp4","amp;tr":["udp%3A%2F%2Ftracker.openbittorrent.com%3A80","udp%3A%2F%2Fopen.demonii.com%3A1337","udp%3A%2F%2Ftracker.coppersurfer.tk%3A6969","udp%3A%2F%2Fexodus.desync.com%3A6969"],"infoHash":"fe0ad74159d8e37c3b1dd37b1c3633f33beb2314","infoHashBuffer":{"type":"Buffer","data":[254,10,215,65,89,216,227,124,59,29,211,123,28,54,51,243,59,235,35,20]},"announce":[],"urlList":[]}}